<svg width="1440" height="734" viewBox="0 0 1440 734" fill="none" xmlns="http://www.w3.org/2000/svg">
<path fill-rule="evenodd" clip-rule="evenodd" d="M-69.9881 -447.048L1834.96 -161.426L1730.25 660.359L1723.29 659.315C1634.86 628.269 1539.33 599.698 1438.84 574.871C1124.33 497.16 833.486 473.956 643.797 501.812C411.295 519.145 130.833 501.728 -149.706 451.854C-464.604 395.871 -754.439 303.469 -956.865 194.523C-1159.29 85.5768 -1258.14 -31.2081 -1232.14 -130.71C-1206.13 -230.213 -1057.37 -304.482 -817.833 -337.543C-612.286 -365.912 -353.994 -361.992 -85.253 -327.249L-69.9881 -447.048Z" fill="#862E35"/>
<path fill-rule="evenodd" clip-rule="evenodd" d="M54.2854 -253.094L1164.67 -311.182L1201.51 517.453L1197.45 517.665C1143.83 502.83 1086.48 491.701 1026.77 485.144C839.869 464.62 672.721 493.6 568.732 554.872C439.307 613.405 278.706 646.237 114.269 647.093C-70.3082 648.054 -244.972 608.651 -372.15 537.359C-499.329 466.067 -568.861 368.583 -565.79 265.876C-562.719 163.169 -487.289 63.4465 -355.727 -11.8412C-242.832 -76.447 -96.3431 -118.63 59.6559 -132.296L54.2854 -253.094Z" fill="#862E35"/>
<path fill-rule="evenodd" clip-rule="evenodd" d="M18.7839 -313.38H1477.43V516.218H1472.1C1402.68 498.598 1328.17 484.485 1250.29 474.816C1006.54 444.55 785.792 464.763 645.934 520.529C472.901 572.232 260.507 596.634 44.947 588.896C-197.013 580.212 -423.629 531.727 -586.154 453.872C-748.68 376.018 -834.128 275.014 -824.118 172.587C-814.109 70.1597 -709.441 -25.5059 -532.631 -93.8318C-380.907 -152.463 -186.463 -186.943 18.7839 -192.442V-313.38Z" fill="#B33F48"/>
</svg>
