<svg width="332" height="332" viewBox="0 0 332 332" fill="none" xmlns="http://www.w3.org/2000/svg">
<g filter="url(#filter0_i_19_22)">
<circle cx="166" cy="166" r="166" fill="url(#paint0_linear_19_22)"/>
</g>
<g filter="url(#filter1_d_19_22)">
<path d="M54.6625 213.952C54.6625 212.245 54.8758 210.283 55.3025 208.064C55.7718 205.803 56.6892 203.093 58.0545 199.936L66.9505 203.008C66.3105 204.8 65.7772 206.421 65.3505 207.872C64.9238 209.323 64.7105 210.773 64.7105 212.224C64.7105 214.059 65.1585 215.616 66.0545 216.896C66.9505 218.219 68.2305 219.221 69.8945 219.904C71.6012 220.629 73.6705 220.992 76.1025 220.992C78.4918 220.992 80.4758 220.693 82.0545 220.096C83.6332 219.541 84.8918 218.731 85.8305 217.664C86.7692 216.597 87.4305 215.381 87.8145 214.016C88.2412 212.608 88.4545 211.072 88.4545 209.408C88.4545 208.256 88.3265 206.997 88.0705 205.632C87.8572 204.224 87.5158 202.688 87.0465 201.024C86.5772 199.36 86.0438 197.547 85.4465 195.584L95.1745 193.024C95.6012 194.56 95.9638 195.947 96.2625 197.184C96.5612 198.379 96.8172 199.381 97.0305 200.192C97.2438 201.003 97.3932 201.621 97.4785 202.048C97.9052 203.328 98.4598 204.288 99.1425 204.928C99.8252 205.568 100.7 205.995 101.767 206.208C102.876 206.421 104.199 206.528 105.735 206.528C107.569 206.528 108.871 206.997 109.639 207.936C110.449 208.832 110.855 209.963 110.855 211.328C110.855 212.779 110.364 213.973 109.383 214.912C108.401 215.851 106.972 216.32 105.095 216.32C103.772 216.32 102.428 216.128 101.063 215.744C99.6972 215.317 98.5025 214.635 97.4785 213.696C96.4972 212.757 95.8785 211.477 95.6225 209.856L98.3745 210.496C98.2892 213.696 97.6918 216.555 96.5825 219.072C95.5158 221.589 94.0012 223.723 92.0385 225.472C90.0758 227.221 87.7078 228.544 84.9345 229.44C82.2038 230.336 79.1105 230.784 75.6545 230.784C72.7105 230.784 69.9585 230.464 67.3985 229.824C64.8812 229.227 62.6625 228.245 60.7425 226.88C58.8225 225.557 57.3292 223.829 56.2625 221.696C55.1958 219.563 54.6625 216.981 54.6625 213.952ZM76.2945 187.904C74.8865 187.904 73.6918 187.435 72.7105 186.496C71.7718 185.515 71.3025 184.341 71.3025 182.976C71.3025 181.568 71.7718 180.373 72.7105 179.392C73.6918 178.368 74.8865 177.856 76.2945 177.856C77.6598 177.856 78.8118 178.368 79.7505 179.392C80.6892 180.373 81.1585 181.568 81.1585 182.976C81.1585 184.341 80.6678 185.515 79.6865 186.496C78.7478 187.435 77.6172 187.904 76.2945 187.904ZM105.125 216.32L105.765 206.528C108.368 206.528 110.373 206.379 111.781 206.08C113.189 205.739 114.149 205.205 114.661 204.48C115.173 203.712 115.429 202.709 115.429 201.472C115.429 200.192 115.258 198.72 114.917 197.056C114.618 195.349 114.213 193.6 113.701 191.808C113.232 190.016 112.741 188.373 112.229 186.88L121.765 184.32C122.277 185.771 122.81 187.477 123.365 189.44C123.92 191.36 124.368 193.365 124.709 195.456C125.093 197.547 125.285 199.616 125.285 201.664C125.285 204.779 124.752 207.317 123.685 209.28C122.661 211.2 121.232 212.672 119.397 213.696C117.562 214.72 115.429 215.424 112.997 215.808C110.565 216.149 107.941 216.32 105.125 216.32ZM121.893 231.168C120.613 231.168 119.525 230.72 118.629 229.824C117.776 228.971 117.349 227.904 117.349 226.624C117.349 225.344 117.776 224.256 118.629 223.36C119.525 222.464 120.613 222.016 121.893 222.016C123.13 222.016 124.197 222.464 125.093 223.36C125.989 224.256 126.437 225.344 126.437 226.624C126.437 227.904 125.989 228.971 125.093 229.824C124.197 230.72 123.13 231.168 121.893 231.168ZM110.693 231.168C109.413 231.168 108.325 230.72 107.429 229.824C106.533 228.971 106.085 227.904 106.085 226.624C106.085 225.344 106.512 224.256 107.365 223.36C108.261 222.464 109.349 222.016 110.629 222.016C111.866 222.016 112.933 222.464 113.829 223.36C114.725 224.256 115.173 225.344 115.173 226.624C115.173 227.904 114.725 228.971 113.829 229.824C112.933 230.72 111.888 231.168 110.693 231.168ZM143.647 206.144C145.226 206.144 146.442 205.995 147.295 205.696C148.148 205.397 148.746 204.971 149.087 204.416C149.471 203.861 149.663 203.221 149.663 202.496C149.663 201.643 149.45 200.661 149.023 199.552C148.639 198.443 148.106 197.248 147.423 195.968C146.74 194.645 145.93 193.237 144.991 191.744C144.095 190.251 143.092 188.736 141.983 187.2L150.815 181.504C152.735 184.149 154.314 186.688 155.551 189.12C156.831 191.509 157.855 193.707 158.623 195.712C159.434 197.675 160.01 199.403 160.351 200.896C160.735 202.347 161.247 203.477 161.887 204.288C162.57 205.099 163.38 205.675 164.319 206.016C165.258 206.357 166.26 206.528 167.327 206.528C169.162 206.528 170.463 206.997 171.231 207.936C172.042 208.832 172.447 209.963 172.447 211.328C172.447 212.779 171.956 213.973 170.975 214.912C170.036 215.851 168.607 216.32 166.687 216.32C164.895 216.32 163.252 216.064 161.759 215.552C160.308 215.04 159.028 214.229 157.919 213.12C156.81 212.011 155.892 210.581 155.167 208.832L158.815 209.6C158.346 210.88 157.471 212.032 156.191 213.056C154.954 214.08 153.375 214.891 151.455 215.488C149.578 216.085 147.38 216.384 144.863 216.384C143.412 216.384 141.898 216.256 140.319 216C138.74 215.787 137.183 215.445 135.647 214.976C134.154 214.507 132.767 213.888 131.487 213.12L135.071 204.032C136.479 204.672 137.908 205.184 139.359 205.568C140.852 205.952 142.282 206.144 143.647 206.144ZM166.75 216.32L167.39 206.528C169.225 206.528 170.547 206.336 171.358 205.952C172.211 205.568 172.723 204.8 172.894 203.648C173.065 202.496 173.107 200.768 173.022 198.464L171.806 168.32H181.79L183.134 199.488C183.219 202.005 183.113 204.309 182.814 206.4C182.558 208.448 181.897 210.219 180.83 211.712C179.763 213.163 178.099 214.293 175.838 215.104C173.577 215.915 170.547 216.32 166.75 216.32ZM191.683 216L190.339 168.32H200.323L201.667 216H191.683ZM222.899 230.784L219.571 221.952C222.174 221.184 224.456 220.267 226.419 219.2C228.424 218.176 230.067 217.045 231.347 215.808C232.67 214.571 233.651 213.269 234.291 211.904C234.974 210.539 235.315 209.152 235.315 207.744C235.315 205.952 234.867 203.968 233.971 201.792C233.118 199.573 232.03 197.269 230.707 194.88L239.795 190.464C240.52 191.744 241.182 193.109 241.779 194.56C242.376 195.968 242.888 197.312 243.315 198.592C243.784 199.829 244.147 200.853 244.403 201.664C244.958 203.584 245.747 204.885 246.771 205.568C247.838 206.208 249.438 206.528 251.571 206.528C253.406 206.528 254.707 206.997 255.475 207.936C256.286 208.832 256.691 209.963 256.691 211.328C256.691 212.779 256.2 213.973 255.219 214.912C254.238 215.851 252.808 216.32 250.931 216.32C249.267 216.32 247.795 216.064 246.515 215.552C245.278 215.04 244.275 214.293 243.507 213.312C242.739 212.331 242.248 211.179 242.035 209.856L244.787 209.28C244.659 211.541 244.062 213.781 242.995 216C241.971 218.176 240.52 220.224 238.643 222.144C236.766 224.064 234.504 225.749 231.859 227.2C229.214 228.693 226.227 229.888 222.899 230.784ZM235.187 184.256C233.779 184.256 232.584 183.787 231.603 182.848C230.664 181.867 230.195 180.693 230.195 179.328C230.195 177.92 230.664 176.725 231.603 175.744C232.584 174.72 233.779 174.208 235.187 174.208C236.552 174.208 237.704 174.72 238.643 175.744C239.582 176.725 240.051 177.92 240.051 179.328C240.051 180.693 239.56 181.867 238.579 182.848C237.64 183.787 236.51 184.256 235.187 184.256ZM251 216.32L251.64 206.528C253.517 206.528 254.968 206.507 255.992 206.464C257.016 206.421 257.805 206.379 258.36 206.336C258.915 206.251 259.427 206.187 259.896 206.144C259.469 205.675 258.915 205.035 258.232 204.224C257.592 203.413 257.037 202.389 256.568 201.152C256.099 199.872 255.864 198.357 255.864 196.608C255.864 193.92 256.547 191.573 257.912 189.568C259.32 187.563 261.219 186.005 263.608 184.896C266.04 183.744 268.728 183.168 271.672 183.168C273.123 183.168 274.445 183.253 275.64 183.424C276.835 183.595 278.072 183.851 279.352 184.192L277.816 193.408C276.963 193.195 276.067 193.024 275.128 192.896C274.189 192.768 273.357 192.704 272.632 192.704C271.309 192.704 270.136 192.917 269.112 193.344C268.131 193.728 267.363 194.304 266.808 195.072C266.253 195.797 265.976 196.693 265.976 197.76C265.976 198.443 266.104 199.104 266.36 199.744C266.616 200.384 266.936 200.96 267.32 201.472C267.747 201.984 268.216 202.432 268.728 202.816C269.24 203.2 269.773 203.52 270.328 203.776C270.883 203.989 271.416 204.139 271.928 204.224C272.525 204.053 273.101 203.883 273.656 203.712C274.253 203.541 274.915 203.349 275.64 203.136C276.408 202.88 277.325 202.539 278.392 202.112C279.459 201.685 280.781 201.131 282.36 200.448L285.304 209.344C281.549 211.136 277.88 212.544 274.296 213.568C270.712 214.592 267.021 215.317 263.224 215.744C259.469 216.128 255.395 216.32 251 216.32Z" fill="white"/>
<path d="M127.16 136.32C123.918 136.32 121.102 135.915 118.712 135.104C116.366 134.251 114.531 132.928 113.208 131.136C111.928 129.301 111.203 126.869 111.032 123.84L109.88 97.024H119.8L120.888 120.128C120.974 121.877 121.272 123.221 121.784 124.16C122.296 125.099 123.043 125.739 124.024 126.08C125.006 126.379 126.264 126.528 127.8 126.528C129.635 126.528 130.936 126.997 131.704 127.936C132.472 128.832 132.856 129.963 132.856 131.328C132.856 132.779 132.366 133.973 131.384 134.912C130.446 135.851 129.038 136.32 127.16 136.32ZM114.552 130.048C111.566 130.688 108.686 130.987 105.912 130.944C103.182 130.859 100.728 130.389 98.5523 129.536C96.4189 128.683 94.7336 127.403 93.4963 125.696C92.2589 123.989 91.6403 121.792 91.6403 119.104C91.6403 116.672 92.1523 114.496 93.1763 112.576C94.2003 110.613 95.6509 108.907 97.5283 107.456C99.4056 106.005 101.603 104.789 104.12 103.808C106.68 102.784 109.454 101.995 112.44 101.44L113.336 111.36C111.587 111.445 109.987 111.68 108.536 112.064C107.086 112.448 105.827 112.96 104.76 113.6C103.736 114.24 102.926 114.965 102.328 115.776C101.774 116.544 101.496 117.376 101.496 118.272C101.496 118.955 101.731 119.531 102.2 120C102.67 120.469 103.31 120.832 104.12 121.088C104.974 121.344 105.934 121.493 107 121.536C108.067 121.579 109.198 121.515 110.392 121.344C111.587 121.173 112.803 120.875 114.04 120.448L114.552 130.048ZM115 90.304C113.72 90.304 112.632 89.856 111.736 88.96C110.883 88.064 110.456 86.9973 110.456 85.76C110.456 84.48 110.883 83.392 111.736 82.496C112.59 81.6 113.656 81.152 114.936 81.152C116.216 81.152 117.304 81.6 118.2 82.496C119.096 83.392 119.544 84.48 119.544 85.76C119.544 86.9973 119.096 88.064 118.2 88.96C117.304 89.856 116.238 90.304 115 90.304ZM103.736 90.24C102.456 90.24 101.368 89.792 100.472 88.896C99.6189 88 99.1923 86.9333 99.1923 85.696C99.1923 84.416 99.6189 83.3493 100.472 82.496C101.368 81.6 102.456 81.152 103.736 81.152C104.974 81.152 106.04 81.6 106.936 82.496C107.832 83.3493 108.28 84.416 108.28 85.696C108.28 86.9333 107.832 88 106.936 88.896C106.04 89.792 104.974 90.24 103.736 90.24ZM127.156 136.32L127.796 126.528C129.332 126.528 130.57 126.4 131.508 126.144C132.49 125.845 133.279 125.248 133.876 124.352C134.474 123.413 134.964 122.048 135.348 120.256C135.775 118.421 136.18 115.989 136.564 112.96L145.972 114.496C145.887 115.136 145.78 115.861 145.652 116.672C145.524 117.483 145.418 118.315 145.332 119.168C145.247 120.021 145.204 120.853 145.204 121.664C145.204 122.731 145.418 123.627 145.844 124.352C146.314 125.077 147.124 125.632 148.276 126.016C149.428 126.357 151.05 126.528 153.14 126.528C154.975 126.528 156.276 126.997 157.044 127.936C157.812 128.832 158.196 129.963 158.196 131.328C158.196 132.779 157.706 133.973 156.724 134.912C155.786 135.851 154.378 136.32 152.5 136.32C149.514 136.32 147.06 136 145.14 135.36C143.22 134.72 141.791 133.696 140.852 132.288C139.914 130.88 139.316 129.003 139.06 126.656H142.452C141.684 128.832 140.746 130.581 139.636 131.904C138.527 133.227 137.29 134.208 135.924 134.848C134.559 135.445 133.13 135.829 131.636 136C130.143 136.213 128.65 136.32 127.156 136.32ZM138.676 151.552C137.311 151.552 136.159 151.083 135.22 150.144C134.282 149.248 133.812 148.139 133.812 146.816C133.812 145.451 134.282 144.277 135.22 143.296C136.159 142.315 137.311 141.824 138.676 141.824C139.999 141.824 141.13 142.315 142.068 143.296C143.007 144.277 143.476 145.451 143.476 146.816C143.476 148.139 143.007 149.248 142.068 150.144C141.13 151.083 139.999 151.552 138.676 151.552ZM152.531 136.32L153.171 126.528C154.835 126.528 156.222 126.4 157.331 126.144C158.441 125.845 159.358 125.248 160.083 124.352C160.809 123.413 161.406 122.048 161.875 120.256C162.387 118.421 162.835 115.989 163.219 112.96L172.627 114.496C172.542 115.136 172.435 115.861 172.307 116.672C172.179 117.483 172.073 118.315 171.987 119.168C171.902 120.021 171.859 120.853 171.859 121.664C171.859 122.475 171.987 123.179 172.243 123.776C172.542 124.373 173.011 124.885 173.651 125.312C174.291 125.739 175.166 126.059 176.275 126.272C177.385 126.443 178.771 126.528 180.435 126.528C182.227 126.528 183.507 126.997 184.275 127.936C185.086 128.832 185.491 129.963 185.491 131.328C185.491 132.779 185.001 133.973 184.019 134.912C183.081 135.851 181.673 136.32 179.795 136.32C177.534 136.32 175.571 136.149 173.907 135.808C172.243 135.467 170.835 134.912 169.683 134.144C168.531 133.333 167.614 132.331 166.931 131.136C166.291 129.899 165.886 128.405 165.715 126.656H169.107C168.339 128.832 167.358 130.581 166.163 131.904C164.969 133.227 163.625 134.208 162.131 134.848C160.638 135.445 159.059 135.829 157.395 136C155.774 136.213 154.153 136.32 152.531 136.32ZM173.395 106.624C172.115 106.624 171.027 106.176 170.131 105.28C169.278 104.384 168.851 103.317 168.851 102.08C168.851 100.8 169.278 99.712 170.131 98.816C171.027 97.92 172.115 97.472 173.395 97.472C174.633 97.472 175.699 97.92 176.595 98.816C177.491 99.712 177.939 100.8 177.939 102.08C177.939 103.317 177.491 104.384 176.595 105.28C175.699 106.176 174.633 106.624 173.395 106.624ZM162.131 106.56C160.851 106.56 159.763 106.112 158.867 105.216C158.014 104.32 157.587 103.275 157.587 102.08C157.587 100.757 158.014 99.6693 158.867 98.816C159.763 97.92 160.851 97.472 162.131 97.472C163.369 97.472 164.435 97.92 165.331 98.816C166.227 99.6693 166.675 100.757 166.675 102.08C166.675 103.275 166.227 104.32 165.331 105.216C164.435 106.112 163.369 106.56 162.131 106.56ZM179.781 136.32L180.421 126.528H189.381C190.619 126.528 191.579 126.464 192.261 126.336C192.987 126.165 193.499 125.909 193.797 125.568C194.139 125.184 194.309 124.672 194.309 124.032C194.309 123.307 193.989 122.453 193.349 121.472C192.752 120.491 191.941 119.488 190.917 118.464C189.936 117.397 188.891 116.331 187.781 115.264C186.672 114.197 185.605 113.195 184.581 112.256C183.6 111.275 182.789 110.421 182.149 109.696C181.509 108.971 181.189 108.416 181.189 108.032C181.189 106.88 181.253 105.92 181.381 105.152C181.509 104.384 181.68 103.744 181.893 103.232C182.107 102.72 182.363 102.315 182.661 102.016C183.387 101.248 184.496 100.395 185.989 99.456C187.483 98.4747 189.253 97.4507 191.301 96.384C193.349 95.2747 195.653 94.1227 198.213 92.928C200.773 91.7333 203.483 90.496 206.341 89.216L210.245 97.792C207.259 99.1147 204.656 100.288 202.437 101.312C200.219 102.336 198.277 103.275 196.613 104.128C194.949 104.981 193.477 105.792 192.197 106.56C190.917 107.285 189.765 108.011 188.741 108.736L188.869 103.552C190.405 104.875 191.899 106.197 193.349 107.52C194.8 108.843 196.187 110.229 197.509 111.68C198.832 113.131 200.069 114.667 201.221 116.288C202.416 117.867 203.525 119.573 204.549 121.408C205.403 122.901 206.277 124.011 207.173 124.736C208.069 125.461 209.051 125.952 210.117 126.208C211.184 126.421 212.357 126.528 213.637 126.528C215.429 126.528 216.709 126.997 217.477 127.936C218.288 128.832 218.693 129.963 218.693 131.328C218.693 132.779 218.203 133.973 217.221 134.912C216.283 135.851 214.875 136.32 212.997 136.32C210.949 136.32 209.029 136.085 207.237 135.616C205.488 135.104 203.952 134.293 202.629 133.184C201.349 132.032 200.432 130.496 199.877 128.576L203.461 128.704C202.821 130.027 202.053 131.179 201.157 132.16C200.261 133.099 199.195 133.888 197.957 134.528C196.72 135.125 195.312 135.573 193.733 135.872C192.155 136.171 190.405 136.32 188.485 136.32H179.781ZM212.969 136.32L213.609 126.528C214.846 126.528 215.849 126.251 216.617 125.696C217.385 125.141 218.131 124.267 218.857 123.072C219.625 121.835 220.542 120.235 221.609 118.272C223.102 115.627 224.553 113.579 225.961 112.128C227.369 110.677 228.777 109.675 230.185 109.12C231.635 108.523 233.086 108.224 234.537 108.224C236.499 108.224 238.313 108.672 239.977 109.568C241.641 110.464 243.07 111.659 244.265 113.152C245.502 114.603 246.462 116.245 247.145 118.08C247.827 119.872 248.169 121.707 248.169 123.584C248.169 125.931 247.699 128.064 246.761 129.984C245.822 131.861 244.478 133.333 242.729 134.4C241.022 135.467 238.974 136 236.585 136C234.707 136 232.574 135.68 230.185 135.04C227.838 134.4 225.278 133.099 222.505 131.136L226.025 122.816C227.859 124.096 229.609 125.013 231.273 125.568C232.937 126.08 234.323 126.336 235.433 126.336C236.243 126.336 236.905 126.251 237.417 126.08C237.929 125.867 238.291 125.589 238.505 125.248C238.761 124.864 238.889 124.395 238.889 123.84C238.889 122.901 238.675 122.005 238.249 121.152C237.822 120.299 237.267 119.595 236.585 119.04C235.945 118.443 235.177 118.144 234.281 118.144C233.47 118.144 232.723 118.443 232.041 119.04C231.401 119.637 230.739 120.533 230.057 121.728C229.417 122.923 228.627 124.459 227.689 126.336C226.75 128.085 225.833 129.6 224.937 130.88C224.083 132.16 223.123 133.205 222.057 134.016C221.033 134.827 219.795 135.424 218.345 135.808C216.894 136.149 215.102 136.32 212.969 136.32Z" fill="#E0CD66"/>
</g>
<defs>
<filter id="filter0_i_19_22" x="0" y="0" width="336" height="336" filterUnits="userSpaceOnUse" color-interpolation-filters="sRGB">
<feFlood flood-opacity="0" result="BackgroundImageFix"/>
<feBlend mode="normal" in="SourceGraphic" in2="BackgroundImageFix" result="shape"/>
<feColorMatrix in="SourceAlpha" type="matrix" values="0 0 0 0 0 0 0 0 0 0 0 0 0 0 0 0 0 0 127 0" result="hardAlpha"/>
<feOffset dx="12" dy="4"/>
<feGaussianBlur stdDeviation="2"/>
<feComposite in2="hardAlpha" operator="arithmetic" k2="-1" k3="1"/>
<feColorMatrix type="matrix" values="0 0 0 0 0 0 0 0 0 0 0 0 0 0 0 0 0 0 0.25 0"/>
<feBlend mode="normal" in2="shape" result="effect1_innerShadow_19_22"/>
</filter>
<filter id="filter1_d_19_22" x="54.6625" y="81.152" width="242.642" height="164.016" filterUnits="userSpaceOnUse" color-interpolation-filters="sRGB">
<feFlood flood-opacity="0" result="BackgroundImageFix"/>
<feColorMatrix in="SourceAlpha" type="matrix" values="0 0 0 0 0 0 0 0 0 0 0 0 0 0 0 0 0 0 127 0" result="hardAlpha"/>
<feOffset dx="8" dy="10"/>
<feGaussianBlur stdDeviation="2"/>
<feComposite in2="hardAlpha" operator="out"/>
<feColorMatrix type="matrix" values="0 0 0 0 0 0 0 0 0 0 0 0 0 0 0 0 0 0 0.25 0"/>
<feBlend mode="normal" in2="BackgroundImageFix" result="effect1_dropShadow_19_22"/>
<feBlend mode="normal" in="SourceGraphic" in2="effect1_dropShadow_19_22" result="shape"/>
</filter>
<linearGradient id="paint0_linear_19_22" x1="193" y1="15" x2="114.5" y2="280.5" gradientUnits="userSpaceOnUse">
<stop stop-color="#B33F48"/>
<stop offset="1" stop-color="#832C4E"/>
</linearGradient>
</defs>
</svg>
