<?xml version="1.0" standalone="no"?><svg xmlns="http://www.w3.org/2000/svg" viewBox="0 0 1440 320"><path fill="#273036" fill-opacity="1" d="M0,64L40,96C80,128,160,192,240,229.3C320,267,400,277,480,245.3C560,213,640,139,720,112C800,85,880,107,960,96C1040,85,1120,43,1200,32C1280,21,1360,43,1400,53.3L1440,64L1440,320L1400,320C1360,320,1280,320,1200,320C1120,320,1040,320,960,320C880,320,800,320,720,320C640,320,560,320,480,320C400,320,320,320,240,320C160,320,80,320,40,320L0,320Z" style="--darkreader-inline-fill: var(--darkreader-background-f3f4f5, #1e2122);" data-darkreader-inline-fill=""></path></svg>